<?xml version="1.0" encoding="utf-8"?>
<!DOCTYPE svg PUBLIC "-//W3C//DTD SVG 1.1//EN" "http://www.w3.org/Graphics/SVG/1.1/DTD/svg11.dtd">
<svg version="1.1" id="Ebene_1" xmlns="http://www.w3.org/2000/svg" xmlns:xlink="http://www.w3.org/1999/xlink" x="0px" y="0px"
	 width="283.46px" height="283.46px" viewBox="0 0 283.46 283.46" enable-background="new 0 0 283.46 283.46" xml:space="preserve">
<path fill="#BE1622" d="M273.965,8.626v8.307h-13.452V8.626h-9.495v8.307h-13.45V8.626h-9.495v8.307h-13.451V8.626h-9.494v8.307
	h-13.451V8.626h-9.495v8.307v30.032h-0.001l15.203,26.333v32.76H86.076v-32.76l15.203-26.333V16.933V8.626h-9.495v8.307H78.332
	V8.626h-9.495v8.307h-13.45V8.626h-9.495v8.307H32.441V8.626h-9.495v8.307H9.496V8.626H0v8.307v30.032h0l15.203,26.333v32.76
	L0,259.093h97.001v-70.562c-0.096-1.069-0.159-2.148-0.159-3.24c0-22.102,20.097-40.018,44.888-40.018
	c24.792,0,44.888,17.916,44.888,40.018c0,1.096-0.063,2.179-0.16,3.252v70.55h97.001l-15.202-153.035v-32.76l15.203-26.333V16.933
	V8.626H273.965z M48.403,136.885H25.08v-28.591h23.323V136.885z M25.08,103.821V75.23h23.323l0,28.591H25.08z M76.198,136.885
	H52.876v-28.591h23.322V136.885z M76.198,103.821H52.876l0-28.591h23.323V103.821z M230.584,134.648h-23.323v-28.591h23.323V134.648
	z M230.584,101.585h-23.323V72.994h23.323V101.585z M258.379,134.648h-23.322v-28.591h23.322V134.648z M258.379,101.585h-23.322
	l-0.001-28.591h23.323V101.585z"/>
</svg>
