<?xml version="1.0" encoding="utf-8"?>
<!-- Generator: Adobe Illustrator 16.0.0, SVG Export Plug-In . SVG Version: 6.00 Build 0)  -->
<!DOCTYPE svg PUBLIC "-//W3C//DTD SVG 1.1//EN" "http://www.w3.org/Graphics/SVG/1.1/DTD/svg11.dtd">
<svg version="1.1" id="Ebene_1" xmlns="http://www.w3.org/2000/svg" xmlns:xlink="http://www.w3.org/1999/xlink" x="0px" y="0px"
	 width="283.46px" height="283.46px" viewBox="0 0 283.46 283.46" enable-background="new 0 0 283.46 283.46" xml:space="preserve">
<path fill="#BE1622" d="M161.146,30.992h-60.771L73.704,58.001v91.832h43.89l37.137-49.292h48.617V63.403L161.146,30.992z
	 M110.503,112.357h-21.27V78.934h21.27V112.357z M145.615,76.57V54.963h22.283l10.128,21.607H145.615z"/>
<path fill="#BE1622" d="M215.164,117.084h-44.228l-32.411,35.787v77.989h120.522v-90.819L215.164,117.084z M182.754,185.958h-28.698
	V157.26h28.698V185.958z M239.467,192.71H193.55v-21.102h45.917V192.71z"/>
<path fill="#BE1622" d="M100.375,166.714H46.019l-21.607,26.334v59.42h102.973v-58.069L100.375,166.714z M73.704,237.613H40.617
	V222.42h33.087V237.613z M104.089,230.018H81.806v-26.504h22.283V230.018z"/>
</svg>
