<?xml version="1.0" encoding="utf-8"?>
<!DOCTYPE svg PUBLIC "-//W3C//DTD SVG 1.1//EN" "http://www.w3.org/Graphics/SVG/1.1/DTD/svg11.dtd">
<svg version="1.1" id="Ebene_1" xmlns="http://www.w3.org/2000/svg" xmlns:xlink="http://www.w3.org/1999/xlink" x="0px" y="0px"
	 width="283.46px" height="283.46px" viewBox="0 0 283.46 283.46" enable-background="new 0 0 283.46 283.46" xml:space="preserve">
<path fill="#BE1622" d="M242.561,208.123l-16.779,7.719l-6.711-20.805l-36.914,4.025l-15.549-26.453l-4.539,3.973v11.137h-28.523
	V99.866c0-7.876,6.385-14.262,14.261-14.262c1.467,0,2.879,0.223,4.209,0.633l1.953-11.334l-20.805-2.349l-8.115-15.706H39.585
	v119.299L7.911,231.008h31.674h216.442h19.521L242.561,208.123z M96.632,187.719H68.109V99.866c0-7.876,6.385-14.262,14.262-14.262
	s14.262,6.385,14.262,14.262V187.719z"/>
<polygon fill="#BE1622" points="269.168,98.714 147.807,52.452 247.721,192.184 272.281,187.896 "/>
</svg>
