<?xml version="1.0" encoding="utf-8"?>
<!-- Generator: Adobe Illustrator 16.0.0, SVG Export Plug-In . SVG Version: 6.00 Build 0)  -->
<!DOCTYPE svg PUBLIC "-//W3C//DTD SVG 1.1//EN" "http://www.w3.org/Graphics/SVG/1.1/DTD/svg11.dtd">
<svg version="1.1" id="Ebene_1" xmlns="http://www.w3.org/2000/svg" xmlns:xlink="http://www.w3.org/1999/xlink" x="0px" y="0px"
	 width="283.46px" height="283.46px" viewBox="0 0 283.46 283.46" enable-background="new 0 0 283.46 283.46" xml:space="preserve">
<polygon fill="#BE1622" points="33.509,83.341 249.951,83.341 141.73,11.529 "/>
<path fill="#BE1622" d="M249.951,217.072V97.771H33.509v119.3L1.835,271.932h31.674h216.442h31.674L249.951,217.072z
	 M90.556,228.643H62.033v-87.854c0-7.876,6.385-14.262,14.262-14.262s14.262,6.385,14.262,14.262V228.643z M155.992,228.643h-28.523
	v-87.854c0-7.876,6.385-14.262,14.262-14.262s14.261,6.385,14.261,14.262V228.643z M221.43,228.643h-28.523v-87.854
	c0-7.876,6.385-14.262,14.262-14.262c7.875,0,14.262,6.385,14.262,14.262V228.643z"/>
</svg>
